HIERARCHY
ROOT Hips
{
	OFFSET 0.000000 0.000000 0.000000
	CHANNELS 6 Xposition Yposition Zposition Zrotation Yrotation Xrotation 
	JOINT LowerBack
	{
		OFFSET 0.000000 0.000000 0.000000
		CHANNELS 3 Zrotation Yrotation Xrotation
		JOINT Spine
		{
			OFFSET 0.028270 2.035590 -0.193380
			CHANNELS 3 Zrotation Yrotation Xrotation
			JOINT Spine1
			{
				OFFSET 0.056720 2.048850 -0.042750
				CHANNELS 3 Zrotation Yrotation Xrotation
				JOINT Neck
				{
					OFFSET 0.000000 0.000000 0.000000
					CHANNELS 3 Zrotation Yrotation Xrotation
					JOINT Neck1
					{
						OFFSET -0.054170 1.746240 0.172020
						CHANNELS 3 Zrotation Yrotation Xrotation
						JOINT Head
						{
							OFFSET 0.104070 1.761360 -0.123970
							CHANNELS 3 Zrotation Yrotation Xrotation
							End Site
							{
								OFFSET 0.000000 0.000000 0.000000
							}
						}
					}
				}
				JOINT LeftShoulder
				{
					OFFSET 0.000000 0.000000 0.000000
					CHANNELS 3 Zrotation Yrotation Xrotation
					JOINT LeftArm
					{
						OFFSET 3.362410 1.200890 -0.311210
						CHANNELS 3 Zrotation Yrotation Xrotation
						JOINT LeftForeArm
						{
							OFFSET 4.983000 -0.000000 -0.000000
							CHANNELS 3 Zrotation Yrotation Xrotation
							JOINT LeftHand
							{
								OFFSET 3.483560 -0.000000 -0.000000
								CHANNELS 3 Zrotation Yrotation Xrotation
								JOINT LeftFingerBase
								{
									OFFSET 0.000000 0.000000 0.000000
									CHANNELS 3 Zrotation Yrotation Xrotation
									JOINT LeftHandIndex1
									{
										OFFSET 0.715260 -0.000000 -0.000000
										CHANNELS 3 Zrotation Yrotation Xrotation
										End Site
										{
											OFFSET 0.000000 0.000000 0.000000
										}
									}
								}
								JOINT LThumb
								{
									OFFSET 0.000000 0.000000 0.000000
									CHANNELS 3 Zrotation Yrotation Xrotation
									End Site
									{
										OFFSET 0.000000 0.000000 0.000000
									}
								}
							}
						}
					}
				}
				JOINT RightShoulder
				{
					OFFSET 0.000000 0.000000 0.000000
					CHANNELS 3 Zrotation Yrotation Xrotation
					JOINT RightArm
					{
						OFFSET -3.136600 1.374050 -0.404650
						CHANNELS 3 Zrotation Yrotation Xrotation
						JOINT RightForeArm
						{
							OFFSET -5.241900 -0.000000 -0.000000
							CHANNELS 3 Zrotation Yrotation Xrotation
							JOINT RightHand
							{
								OFFSET -3.444170 -0.000000 -0.000000
								CHANNELS 3 Zrotation Yrotation Xrotation
								JOINT RightFingerBase
								{
									OFFSET 0.000000 0.000000 0.000000
									CHANNELS 3 Zrotation Yrotation Xrotation
									JOINT RightHandIndex1
									{
										OFFSET -0.622530 -0.000000 -0.000000
										CHANNELS 3 Zrotation Yrotation Xrotation
										End Site
										{
											OFFSET 0.000000 0.000000 0.000000
										}
									}
								}
								JOINT RThumb
								{
									OFFSET 0.000000 0.000000 0.000000
									CHANNELS 3 Zrotation Yrotation Xrotation
									End Site
									{
										OFFSET 0.000000 0.000000 0.000000
									}
								}
							}
						}
					}
				}
			}
		}
	}
}
}
MOTION
Frames: 17
Frame Time: 0.008333
-0.148183 16.885102 -0.153611 -83.376902 86.656726 -64.495940 8.734840 -3.010315 -5.221829 1.490394 -3.824676 -3.652495 -5.822567 -3.711936 1.188941 7.658536 -15.471446 -8.105706 -4.086488 -0.321204 -0.078747 0.000000 0.000000 0.000000 7.517495 9.598784 -1.427921 -67.287414 -4.389347 26.876827 -178.543012 -58.726268 -179.995070 -0.219532 -0.285227 0.003333 0.032730 0.580976 -0.000000 0.000000 0.000000 0.000000 0.000000 0.000000 0.000000 11.762978 -11.369790 -0.927519 71.294396 -4.106758 8.085249 0.384110 81.193339 0.013810 2.240956 3.255124 0.069553 0.017520 -0.254059 -0.000000 0.000000 0.000000 0.000000 0.000000 0.000000 0.000000 
0.065187 16.833936 -0.161387 -84.017939 86.558757 -65.407142 8.964559 -2.938212 -5.062921 1.506196 -3.767614 -3.632222 -5.894747 -3.650914 1.141982 7.466547 -15.089561 -8.166460 -4.253783 -0.333542 -0.099783 0.000000 0.000000 0.000000 7.370690 9.838142 -1.364291 -67.300386 -4.128471 26.019346 -178.438975 -58.647956 -179.988731 -0.914077 -0.487557 0.010285 0.058721 0.589254 -0.000000 0.000000 0.000000 0.000000 0.000000 0.000000 0.000000 12.388403 -10.873597 -0.886153 70.845597 -3.828578 7.263528 0.459050 79.913163 0.008705 0.810273 3.014859 0.023431 0.040860 -0.247928 -0.000000 0.000000 0.000000 0.000000 0.000000 0.000000 0.000000 
0.271320 16.789710 -0.171972 -86.594836 86.461250 -68.295112 9.171650 -2.888436 -4.817721 1.515802 -3.726345 -3.602849 -5.969744 -3.607692 1.068672 7.323196 -14.656609 -8.190271 -4.419062 -0.345597 -0.112754 0.000000 0.000000 0.000000 7.241642 9.996995 -1.298777 -67.480333 -3.842124 25.180801 -178.365807 -58.861008 -179.983151 -1.522550 -0.615981 0.017877 0.080978 0.593443 -0.000000 0.000000 0.000000 0.000000 0.000000 0.000000 0.000000 13.056216 -10.364692 -0.830710 70.400971 -3.444490 6.500777 0.534606 78.515868 0.002985 -0.792199 2.772961 -0.021006 0.065017 -0.241968 -0.000000 0.000000 0.000000 0.000000 0.000000 0.000000 0.000000 
0.470738 16.753647 -0.185243 -91.072515 86.332443 -73.104990 9.373200 -2.853701 -4.512337 1.522182 -3.696148 -3.567766 -6.047683 -3.577230 0.975794 7.220894 -14.195103 -8.180033 -4.577110 -0.356924 -0.118057 0.000000 0.000000 0.000000 7.113965 10.081559 -1.233972 -67.801916 -3.562203 24.402496 -178.331046 -59.374502 -179.978939 -1.978900 -0.648008 0.023343 0.096280 0.592730 -0.000000 0.000000 0.000000 0.000000 0.000000 0.000000 0.000000 13.737981 -9.867902 -0.763579 69.984425 -2.964221 5.818543 0.608084 77.027522 -0.003013 -2.482944 2.558631 -0.061065 0.088618 -0.236469 -0.000000 0.000000 0.000000 0.000000 0.000000 0.000000 0.000000 
0.664245 16.726254 -0.200324 -97.142568 86.142261 -79.509141 9.570129 -2.826637 -4.175250 1.524315 -3.671277 -3.530324 -6.130741 -3.553165 0.869689 7.153470 -13.725150 -8.139280 -4.723652 -0.367205 -0.116110 0.000000 0.000000 0.000000 6.982157 10.100579 -1.173141 -68.226998 -3.317158 23.720601 -178.340364 -60.188155 -179.976683 -2.219371 -0.568147 0.024207 0.102003 0.586694 -0.000000 0.000000 0.000000 0.000000 0.000000 0.000000 0.000000 14.411303 -9.401234 -0.689187 69.622099 -2.413883 5.230106 0.676453 75.494371 -0.008916 -4.168670 2.395557 -0.096544 0.110357 -0.231736 -0.000000 0.000000 0.000000 0.000000 0.000000 0.000000 0.000000 
0.852660 16.707489 -0.215984 -104.299317 85.865380 -86.991678 9.752519 -2.801961 -3.827426 1.519424 -3.647026 -3.491820 -6.220747 -3.530039 0.757623 7.113858 -13.275000 -8.074864 -4.854463 -0.376131 -0.108220 0.000000 0.000000 0.000000 6.846333 10.062351 -1.120149 -68.709678 -3.128260 23.160595 -178.396435 -61.288214 -179.976890 -2.188676 -0.370813 0.019781 0.096541 0.575419 0.000000 0.000000 0.000000 0.000000 0.000000 0.000000 0.000000 15.054690 -8.989146 -0.612981 69.341973 -1.813178 4.752369 0.737747 73.965418 -0.014372 -5.757851 2.302927 -0.128544 0.129261 -0.228070 -0.000000 0.000000 0.000000 0.000000 0.000000 0.000000 0.000000 
1.036972 16.696894 -0.231206 -111.971819 85.473749 -94.973877 9.916830 -2.775921 -3.487072 1.507210 -3.620660 -3.453091 -6.317806 -3.504562 0.646631 7.090494 -12.874626 -7.995366 -4.965725 -0.383451 -0.096198 0.000000 0.000000 0.000000 6.703729 9.974122 -1.077585 -69.202309 -3.006161 22.735404 -178.497152 -62.645595 -179.979918 -1.848089 -0.060711 0.011462 0.079509 0.559504 0.000000 0.000000 0.000000 0.000000 0.000000 0.000000 0.000000 15.642223 -8.655663 -0.540640 69.168245 -1.176030 4.402740 0.791048 72.490797 -0.019096 -7.167885 2.293566 -0.159360 0.144723 -0.225744 -0.000000 0.000000 0.000000 0.000000 0.000000 0.000000 0.000000 
1.218328 16.693727 -0.244950 -119.635779 84.956611 -102.923188 10.048202 -2.747127 -3.172434 1.486092 -3.590903 -3.415528 -6.422146 -3.475219 0.541847 7.074309 -12.540288 -7.907266 -5.055778 -0.389125 -0.081341 0.000000 0.000000 0.000000 6.556247 9.846317 -1.045912 -69.658200 -2.954113 22.451739 -178.635097 -64.223978 -179.985890 -1.180859 0.346997 0.003436 0.051616 0.539901 -0.000000 0.000000 0.000000 0.000000 0.000000 0.000000 0.000000 16.158106 -8.408202 -0.478394 69.115192 -0.531300 4.187115 0.835381 71.132242 -0.022904 -8.331878 2.368004 -0.190787 0.156429 -0.224925 -0.000000 0.000000 0.000000 0.000000 0.000000 0.000000 0.000000 
1.397818 16.697101 -0.256586 -126.902927 84.314481 -110.444508 10.132234 -2.715461 -2.898095 1.455580 -3.557371 -3.380491 -6.531518 -3.441663 0.447577 7.054222 -12.283317 -7.816975 -5.123742 -0.393170 -0.065055 0.000000 0.000000 0.000000 6.403640 9.689471 -1.024080 -70.038800 -2.965677 22.306195 -178.798801 -65.972416 -179.994641 -0.198594 0.829739 0.001076 0.014715 0.517740 -0.000000 0.000000 0.000000 0.000000 0.000000 0.000000 0.000000 16.585759 -8.248088 -0.431233 69.188385 0.097709 4.111527 0.870407 69.944716 -0.025718 -9.206109 2.518361 -0.223318 0.164398 -0.225689 -0.000000 0.000000 0.000000 0.000000 0.000000 0.000000 0.000000 
1.576520 16.706105 -0.266074 -133.538212 83.560151 -117.293795 10.156895 -2.680699 -2.675534 1.415866 -3.519362 -3.349741 -6.641757 -3.403431 0.366291 7.018494 -12.107514 -7.729205 -5.169458 -0.395658 -0.048414 0.000000 0.000000 0.000000 6.242131 9.511723 -1.009711 -70.315375 -3.020481 22.284882 -178.974970 -67.829261 179.994318 1.056103 1.360405 0.010250 -0.028453 0.494105 -0.000000 0.000000 0.000000 0.000000 0.000000 0.000000 0.000000 16.908770 -8.168473 -0.401917 69.384680 0.692654 4.181339 0.896222 68.972110 -0.027549 -9.771532 2.727673 -0.255450 0.168879 -0.227989 -0.000000 0.000000 0.000000 0.000000 0.000000 0.000000 0.000000 
1.755282 16.719918 -0.273456 -139.476796 82.726145 -123.398099 10.101875 -2.642017 -2.511371 1.364763 -3.474625 -3.324288 -6.749124 -3.358402 0.300972 6.960519 -12.003472 -7.647906 -5.193931 -0.396709 -0.032481 0.000000 0.000000 0.000000 6.070782 9.335677 -0.999091 -70.468512 -3.111061 22.379438 -179.148891 -69.736736 179.981755 2.512604 1.911955 0.035027 -0.074943 0.469918 -0.000000 0.000000 0.000000 0.000000 0.000000 0.000000 0.000000 17.121239 -8.148875 -0.392913 69.690121 1.232914 4.396931 0.912417 68.251763 -0.028481 -10.035998 2.972484 -0.284677 0.170227 -0.231672 -0.000000 0.000000 0.000000 0.000000 0.000000 0.000000 0.000000 
1.934711 16.737821 -0.279690 -144.685435 81.842047 -128.716023 9.969392 -2.596858 -2.407224 1.304039 -3.420510 -3.306090 -6.847401 -3.304294 0.248569 6.868772 -11.961526 -7.572706 -5.198174 -0.396459 -0.017169 0.000000 0.000000 0.000000 5.879672 9.157530 -0.988761 -70.491441 -3.193549 22.554315 -179.310109 -71.617288 179.968680 4.074449 2.459520 0.076577 -0.121222 0.445871 -0.000000 0.000000 0.000000 0.000000 0.000000 0.000000 0.000000 17.207485 -8.170723 -0.401170 70.087404 1.715474 4.763182 0.919680 67.792837 -0.028635 -10.027239 3.228502 -0.307698 0.168917 -0.236515 -0.000000 0.000000 0.000000 0.000000 0.000000 0.000000 0.000000 
2.115025 16.759338 -0.285564 -149.233831 80.951370 -133.313029 9.751991 -2.542575 -2.358036 1.232291 -3.353335 -3.294940 -6.933347 -3.237440 0.209170 6.741349 -11.959179 -7.504485 -5.184062 -0.395030 -0.002944 0.000000 0.000000 0.000000 5.664617 9.001931 -0.974233 -70.383656 -3.260877 22.794789 -179.448901 -73.417314 179.956127 5.635688 2.983757 0.132781 -0.164614 0.422492 -0.000000 0.000000 0.000000 0.000000 0.000000 0.000000 0.000000 17.168940 -8.203688 -0.425676 70.549740 2.134939 5.278827 0.917676 67.599929 -0.028166 -9.791712 3.470610 -0.322013 0.165398 -0.242230 -0.000000 0.000000 0.000000 0.000000 0.000000 0.000000 0.000000 
2.296098 16.784147 -0.292116 -153.184375 80.091063 -137.251330 9.457097 -2.476491 -2.353293 1.150551 -3.270227 -3.290618 -7.003692 -3.155084 0.178613 6.575898 -11.974949 -7.440984 -5.153699 -0.392569 0.010592 0.000000 0.000000 0.000000 5.418355 8.874510 -0.951937 -70.153012 -3.288255 23.070312 -179.560559 -75.078684 179.945042 7.088503 3.470735 0.198928 -0.202694 0.400153 -0.000000 0.000000 0.000000 0.000000 0.000000 0.000000 0.000000 17.005710 -8.221990 -0.462191 71.048705 2.498573 5.943130 0.906803 67.656535 -0.027233 -9.383441 3.679695 -0.326521 0.160149 -0.248528 -0.000000 0.000000 0.000000 0.000000 0.000000 0.000000 0.000000 
2.477539 16.812129 -0.300335 -156.609940 79.292840 -140.609134 9.095329 -2.397019 -2.377607 1.060023 -3.169451 -3.291739 -7.057058 -3.055506 0.152860 6.374473 -11.986199 -7.380070 -5.109463 -0.389213 0.023755 0.000000 0.000000 0.000000 5.135991 8.783967 -0.918635 -69.811613 -3.262693 23.354914 -179.643398 -76.560248 179.936149 8.337643 3.910827 0.268113 -0.233849 0.379159 -0.000000 0.000000 0.000000 0.000000 0.000000 0.000000 0.000000 16.725629 -8.201509 -0.506667 71.553760 2.819442 6.752181 0.887563 67.936107 -0.025981 -8.857978 3.843029 -0.321624 0.153619 -0.255143 -0.000000 0.000000 0.000000 0.000000 0.000000 0.000000 0.000000 
2.658711 16.843332 -0.311039 -159.575921 78.578472 -143.462350 8.680633 -2.304109 -2.412164 0.962502 -3.050936 -3.295659 -7.093429 -2.938522 0.129432 6.142316 -11.972744 -7.320950 -5.053648 -0.385061 0.036455 0.000000 0.000000 0.000000 4.814701 8.744537 -0.871585 -69.375205 -3.187781 23.631147 -179.697934 -77.838604 179.929855 9.310113 4.297760 0.333139 -0.257322 0.359794 -0.000000 0.000000 0.000000 0.000000 0.000000 0.000000 0.000000 16.341862 -8.123288 -0.556067 72.033836 3.117503 7.700531 0.860659 68.405775 -0.024543 -8.266799 3.956038 -0.308823 0.146226 -0.261860 -0.000000 0.000000 0.000000 0.000000 0.000000 0.000000 0.000000 
2.838888 16.877860 -0.324654 -162.152979 77.959990 -145.896668 8.225403 -2.199535 -2.437423 0.859617 -2.916323 -3.300570 -7.113464 -2.805867 0.101089 5.885628 -11.919827 -7.258947 -4.989135 -0.380316 0.049815 0.000000 0.000000 0.000000 4.457710 8.740333 -0.810113 -68.863642 -3.040716 23.865181 -179.727523 -78.890029 179.926330 9.957296 4.625962 0.387006 -0.272579 0.342254 -0.000000 0.000000 0.000000 0.000000 0.000000 0.000000 0.000000 15.870280 -7.976760 -0.604907 72.465015 3.413546 8.776140 0.827583 69.025865 -0.023012 -7.647472 4.021568 -0.290620 0.138296 -0.268544 -0.000000 0.000000 0.000000 0.000000 0.000000 0.000000 0.000000 
